<mxfile host="Electron" modified="2023-05-30T15:17:08.700Z" agent="Mozilla/5.0 (Macintosh; Intel Mac OS X 10_15_7) AppleWebKit/537.36 (KHTML, like Gecko) draw.io/21.2.8 Chrome/112.0.5615.165 Electron/24.2.0 Safari/537.36" etag="ENZJdeDf_VLoX7fg2IJy" version="21.2.8" type="device">
  <diagram name="Seite-1" id="PgELdFySvFjkMDb3VJVW">
    <mxGraphModel dx="1172" dy="1802" grid="1" gridSize="10" guides="1" tooltips="1" connect="1" arrows="1" fold="1" page="1" pageScale="1" pageWidth="1169" pageHeight="827" math="0" shadow="0">
      <root>
        <mxCell id="0" />
        <mxCell id="1" parent="0" />
        <mxCell id="rSh8E-XM-SycsprjMQbT-2" value="Stage" style="rounded=0;whiteSpace=wrap;html=1;fillColor=none;strokeWidth=5;align=left;horizontal=1;verticalAlign=top;fontStyle=1;spacingLeft=5;spacing=0;fontColor=#000000;" vertex="1" parent="1">
          <mxGeometry x="80" y="80" width="1000" height="500" as="geometry" />
        </mxCell>
        <mxCell id="rSh8E-XM-SycsprjMQbT-9" value="" style="rounded=0;whiteSpace=wrap;html=1;strokeColor=none;fillColor=#BFBFBF;" vertex="1" parent="1">
          <mxGeometry x="430" y="180" width="300" height="300" as="geometry" />
        </mxCell>
        <mxCell id="rSh8E-XM-SycsprjMQbT-3" value="" style="endArrow=none;html=1;rounded=0;strokeColor=#808080;strokeWidth=6;align=left;verticalAlign=bottom;labelPosition=right;verticalLabelPosition=top;" edge="1" parent="1">
          <mxGeometry width="50" height="50" relative="1" as="geometry">
            <mxPoint x="579.5" y="720" as="sourcePoint" />
            <mxPoint x="579.5" y="40" as="targetPoint" />
          </mxGeometry>
        </mxCell>
        <mxCell id="rSh8E-XM-SycsprjMQbT-4" value="" style="endArrow=none;html=1;rounded=0;strokeColor=#808080;strokeWidth=3;" edge="1" parent="1">
          <mxGeometry width="50" height="50" relative="1" as="geometry">
            <mxPoint x="1120" y="580" as="sourcePoint" />
            <mxPoint x="40" y="580" as="targetPoint" />
          </mxGeometry>
        </mxCell>
        <mxCell id="rSh8E-XM-SycsprjMQbT-5" value="&lt;font style=&quot;font-size: 16px;&quot; color=&quot;#808080&quot;&gt;&lt;b&gt;x&lt;/b&gt;&lt;/font&gt;" style="text;html=1;strokeColor=none;fillColor=none;align=center;verticalAlign=middle;whiteSpace=wrap;rounded=0;" vertex="1" parent="1">
          <mxGeometry x="580" y="40" width="30" height="30" as="geometry" />
        </mxCell>
        <mxCell id="rSh8E-XM-SycsprjMQbT-6" value="&lt;font style=&quot;font-size: 16px;&quot; color=&quot;#808080&quot;&gt;&lt;b&gt;y&lt;/b&gt;&lt;/font&gt;" style="text;html=1;strokeColor=none;fillColor=none;align=center;verticalAlign=middle;whiteSpace=wrap;rounded=0;" vertex="1" parent="1">
          <mxGeometry x="1090" y="580" width="30" height="30" as="geometry" />
        </mxCell>
        <mxCell id="rSh8E-XM-SycsprjMQbT-7" value="&lt;font style=&quot;font-size: 16px;&quot; color=&quot;#808080&quot;&gt;&lt;b&gt;d&amp;amp;b origin&lt;/b&gt;&lt;/font&gt;" style="text;html=1;strokeColor=none;fillColor=none;align=center;verticalAlign=middle;whiteSpace=wrap;rounded=0;" vertex="1" parent="1">
          <mxGeometry x="580" y="580" width="100" height="30" as="geometry" />
        </mxCell>
        <mxCell id="rSh8E-XM-SycsprjMQbT-10" value="&lt;font style=&quot;font-size: 16px;&quot; color=&quot;#808080&quot;&gt;&lt;b&gt;d&amp;amp;b mapping area&lt;/b&gt;&lt;/font&gt;" style="text;html=1;strokeColor=none;fillColor=none;align=center;verticalAlign=middle;whiteSpace=wrap;rounded=0;" vertex="1" parent="1">
          <mxGeometry x="430" y="180" width="150" height="30" as="geometry" />
        </mxCell>
        <mxCell id="rSh8E-XM-SycsprjMQbT-11" value="&lt;font style=&quot;font-size: 16px;&quot; color=&quot;#808080&quot;&gt;&lt;b&gt;0/0&lt;/b&gt;&lt;/font&gt;" style="text;html=1;strokeColor=none;fillColor=none;align=center;verticalAlign=middle;whiteSpace=wrap;rounded=0;" vertex="1" parent="1">
          <mxGeometry x="430" y="450" width="30" height="30" as="geometry" />
        </mxCell>
        <mxCell id="rSh8E-XM-SycsprjMQbT-12" value="&lt;font style=&quot;font-size: 16px;&quot; color=&quot;#808080&quot;&gt;&lt;b&gt;1/1&lt;/b&gt;&lt;/font&gt;" style="text;html=1;strokeColor=none;fillColor=none;align=center;verticalAlign=middle;whiteSpace=wrap;rounded=0;" vertex="1" parent="1">
          <mxGeometry x="700" y="180" width="30" height="30" as="geometry" />
        </mxCell>
        <mxCell id="rSh8E-XM-SycsprjMQbT-17" value="" style="endArrow=none;html=1;rounded=0;strokeWidth=2;strokeColor=#3333FF;" edge="1" parent="1">
          <mxGeometry width="50" height="50" relative="1" as="geometry">
            <mxPoint x="1120" y="329.5" as="sourcePoint" />
            <mxPoint x="40" y="329.5" as="targetPoint" />
          </mxGeometry>
        </mxCell>
        <mxCell id="rSh8E-XM-SycsprjMQbT-18" value="" style="endArrow=none;html=1;rounded=0;strokeWidth=2;strokeColor=#3333FF;" edge="1" parent="1">
          <mxGeometry width="50" height="50" relative="1" as="geometry">
            <mxPoint x="580" y="760" as="sourcePoint" />
            <mxPoint x="580" as="targetPoint" />
          </mxGeometry>
        </mxCell>
        <mxCell id="rSh8E-XM-SycsprjMQbT-19" value="&lt;font color=&quot;#3333ff&quot; style=&quot;font-size: 16px;&quot;&gt;y&lt;/font&gt;" style="text;html=1;strokeColor=none;fillColor=none;align=center;verticalAlign=middle;whiteSpace=wrap;rounded=0;" vertex="1" parent="1">
          <mxGeometry x="580" width="30" height="30" as="geometry" />
        </mxCell>
        <mxCell id="rSh8E-XM-SycsprjMQbT-20" value="&lt;font color=&quot;#3333ff&quot; style=&quot;font-size: 16px;&quot;&gt;x&lt;/font&gt;" style="text;html=1;strokeColor=none;fillColor=none;align=center;verticalAlign=middle;whiteSpace=wrap;rounded=0;" vertex="1" parent="1">
          <mxGeometry x="1090" y="330" width="30" height="30" as="geometry" />
        </mxCell>
        <mxCell id="rSh8E-XM-SycsprjMQbT-21" value="&lt;font color=&quot;#3333ff&quot; style=&quot;font-size: 16px;&quot;&gt;BlackTrax origin&lt;/font&gt;" style="text;html=1;strokeColor=none;fillColor=none;align=center;verticalAlign=middle;whiteSpace=wrap;rounded=0;" vertex="1" parent="1">
          <mxGeometry x="580" y="330" width="120" height="30" as="geometry" />
        </mxCell>
        <mxCell id="rSh8E-XM-SycsprjMQbT-22" value="" style="endArrow=none;html=1;rounded=0;strokeWidth=2;strokeColor=#3333FF;" edge="1" parent="1">
          <mxGeometry width="50" height="50" relative="1" as="geometry">
            <mxPoint x="590" y="180" as="sourcePoint" />
            <mxPoint x="570" y="180" as="targetPoint" />
          </mxGeometry>
        </mxCell>
        <mxCell id="rSh8E-XM-SycsprjMQbT-23" value="" style="endArrow=none;html=1;rounded=0;strokeWidth=2;strokeColor=#3333FF;" edge="1" parent="1">
          <mxGeometry width="50" height="50" relative="1" as="geometry">
            <mxPoint x="590" y="480" as="sourcePoint" />
            <mxPoint x="570" y="480" as="targetPoint" />
          </mxGeometry>
        </mxCell>
        <mxCell id="rSh8E-XM-SycsprjMQbT-24" value="" style="endArrow=none;html=1;rounded=0;strokeWidth=2;strokeColor=#3333FF;" edge="1" parent="1">
          <mxGeometry width="50" height="50" relative="1" as="geometry">
            <mxPoint x="429" y="320" as="sourcePoint" />
            <mxPoint x="429" y="340" as="targetPoint" />
          </mxGeometry>
        </mxCell>
        <mxCell id="rSh8E-XM-SycsprjMQbT-25" value="" style="endArrow=none;html=1;rounded=0;strokeWidth=2;strokeColor=#3333FF;" edge="1" parent="1">
          <mxGeometry width="50" height="50" relative="1" as="geometry">
            <mxPoint x="729" y="320" as="sourcePoint" />
            <mxPoint x="729" y="340" as="targetPoint" />
          </mxGeometry>
        </mxCell>
        <mxCell id="rSh8E-XM-SycsprjMQbT-26" value="&lt;font color=&quot;#3333ff&quot; style=&quot;font-size: 16px;&quot;&gt;-3m&lt;/font&gt;" style="text;html=1;strokeColor=none;fillColor=none;align=center;verticalAlign=middle;whiteSpace=wrap;rounded=0;" vertex="1" parent="1">
          <mxGeometry x="400" y="300" width="30" height="30" as="geometry" />
        </mxCell>
        <mxCell id="rSh8E-XM-SycsprjMQbT-27" value="&lt;font color=&quot;#3333ff&quot; style=&quot;font-size: 16px;&quot;&gt;-3m&lt;/font&gt;" style="text;html=1;strokeColor=none;fillColor=none;align=center;verticalAlign=middle;whiteSpace=wrap;rounded=0;" vertex="1" parent="1">
          <mxGeometry x="580" y="480" width="30" height="30" as="geometry" />
        </mxCell>
        <mxCell id="rSh8E-XM-SycsprjMQbT-28" value="&lt;font color=&quot;#3333ff&quot; style=&quot;font-size: 16px;&quot;&gt;3m&lt;/font&gt;" style="text;html=1;strokeColor=none;fillColor=none;align=center;verticalAlign=middle;whiteSpace=wrap;rounded=0;" vertex="1" parent="1">
          <mxGeometry x="730" y="300" width="30" height="30" as="geometry" />
        </mxCell>
        <mxCell id="rSh8E-XM-SycsprjMQbT-29" value="&lt;font color=&quot;#3333ff&quot; style=&quot;font-size: 16px;&quot;&gt;3m&lt;/font&gt;" style="text;html=1;strokeColor=none;fillColor=none;align=center;verticalAlign=middle;whiteSpace=wrap;rounded=0;" vertex="1" parent="1">
          <mxGeometry x="580" y="150" width="30" height="30" as="geometry" />
        </mxCell>
      </root>
    </mxGraphModel>
  </diagram>
</mxfile>
